<svg width="300" height="300" viewBox="0 0 300 300" fill="none" xmlns="http://www.w3.org/2000/svg">
<path d="M149.634 176.85L30 65.6503H101.267C113.223 65.6503 124.79 69.899 133.904 77.6381L213.401 145.145L182.293 176.253C173.34 185.206 158.908 185.47 149.634 176.85Z" fill="#E64554"/>
<path d="M215.478 143.07L187.916 119.19C178.697 111.203 178.623 96.923 187.759 88.8405L215.478 64.3183V143.07Z" fill="#E64554"/>
<path d="M145.46 177.591L118.674 152.27V236.354L145.198 212.035C155.264 202.805 155.384 186.973 145.46 177.591Z" fill="#E64554"/>
<path d="M218.167 63.646L218.167 88.8034C218.167 103.536 230.11 115.479 244.843 115.479H270L218.167 63.646Z" fill="#E64554"/>
</svg>
